<?xml version="1.0" encoding="iso-8859-1"?>
<!-- Generator: Adobe Illustrator 19.1.1, SVG Export Plug-In . SVG Version: 6.00 Build 0)  -->
<svg version="1.1" id="Layer_1" xmlns="http://www.w3.org/2000/svg" xmlns:xlink="http://www.w3.org/1999/xlink" x="0px" y="0px"
	 viewBox="0 0 40 40" style="enable-background:new 0 0 40 40;" xml:space="preserve">
<g>
	<polygon style="fill:#B0C1D4;" points="18.5,35.882 18.5,4.5 21.5,4.5 21.5,35.882 20,38.882 	"/>
	<path style="fill:#66798F;" d="M21,5v30.764l-1,2l-1-2V5H21 M22,4h-4v32l2,4l2-4V4L22,4z"/>
</g>
<g>
	<path style="fill:#F78F8F;" d="M20,13.5c-3.584,0-6.5-2.916-6.5-6.5s2.916-6.5,6.5-6.5s6.5,2.916,6.5,6.5S23.584,13.5,20,13.5z"/>
	<path style="fill:#C74343;" d="M20,1c3.308,0,6,2.692,6,6s-2.692,6-6,6s-6-2.692-6-6S16.692,1,20,1 M20,0c-3.866,0-7,3.134-7,7
		c0,3.866,3.134,7,7,7s7-3.134,7-7C27,3.134,23.866,0,20,0L20,0z"/>
</g>
</svg>
